<svg width="64" height="56" viewBox="0 0 64 56" fill="none" xmlns="http://www.w3.org/2000/svg">
<path d="M52.44 39.2257C51.7016 40.7318 50.7893 42.168 49.7173 43.512C48.2853 45.3017 47.1093 46.5383 46.208 47.2267C44.808 48.3513 43.304 48.93 41.696 48.9627C40.544 48.9627 39.152 48.6757 37.5307 48.0923C35.904 47.5113 34.4107 47.2267 33.0427 47.2267C31.6107 47.2267 30.0747 47.5113 28.4293 48.0923C26.7867 48.6757 25.4587 48.9813 24.4427 49.0093C22.904 49.0677 21.3653 48.475 19.832 47.2267C18.8533 46.48 17.6293 45.1967 16.16 43.3813C14.5867 41.447 13.2933 39.1953 12.28 36.6357C11.1947 33.866 10.6507 31.1873 10.6507 28.5927C10.6507 25.6223 11.384 23.058 12.8533 20.9113C13.9647 19.2254 15.5535 17.8183 17.4667 16.8257C19.3532 15.8356 21.5069 15.3024 23.7067 15.281C24.9333 15.281 26.5413 15.6123 28.5333 16.2657C30.5253 16.919 31.8053 17.2503 32.3627 17.2503C32.784 17.2503 34.2 16.8607 36.6107 16.0883C38.8853 15.372 40.8053 15.0757 42.3787 15.1923C46.6453 15.4933 49.848 16.9633 51.9787 19.614C48.1653 21.637 46.28 24.4673 46.3173 28.1003C46.3493 30.9307 47.5253 33.285 49.8293 35.154C50.8479 36.0069 52.0364 36.6894 53.336 37.1677C53.0533 37.884 52.7547 38.5677 52.44 39.2257Z" fill="white"/>
<path d="M42.6613 5.55334C42.6613 7.77 41.7333 9.842 39.8907 11.7577C37.6613 14.035 34.968 15.3533 32.048 15.1457C32.0098 14.8669 31.9911 14.5864 31.992 14.3057C31.992 12.1753 33.048 9.898 34.9333 8.03367C35.872 7.091 37.0667 6.30467 38.5147 5.67934C39.96 5.06334 41.3253 4.72267 42.6107 4.66434C42.6453 4.963 42.6613 5.25934 42.6613 5.55334V5.55334Z" fill="white"/>
</svg>
