<svg width="47" height="44" viewBox="0 0 47 44" fill="none" xmlns="http://www.w3.org/2000/svg">
<path d="M45.12 0H1.88C0.840125 0 0 0.7865 0 1.76V42.24C0 43.2135 0.840125 44 1.88 44H45.12C46.1599 44 47 43.2135 47 42.24V1.76C47 0.7865 46.1599 0 45.12 0ZM39.6915 12.8425H35.9374C32.994 12.8425 32.4241 14.1515 32.4241 16.0765V20.317H39.4506L38.5341 26.9555H32.4241V44H25.098V26.961H18.9704V20.317H25.098V15.422C25.098 9.7405 28.8051 6.644 34.2219 6.644C36.8186 6.644 39.0453 6.8255 39.6974 6.908V12.8425H39.6915Z" fill="white"/>
</svg>
