<svg width="21" height="21" viewBox="0 0 21 21" fill="none" xmlns="http://www.w3.org/2000/svg">
<path d="M10.5 0C4.70156 0 0 4.70156 0 10.5C0 16.2984 4.70156 21 10.5 21C16.2984 21 21 16.2984 21 10.5C21 4.70156 16.2984 0 10.5 0ZM8.625 14.0625C8.625 14.1656 8.54063 14.25 8.4375 14.25H7.3125C7.20937 14.25 7.125 14.1656 7.125 14.0625V6.9375C7.125 6.83437 7.20937 6.75 7.3125 6.75H8.4375C8.54063 6.75 8.625 6.83437 8.625 6.9375V14.0625ZM13.875 14.0625C13.875 14.1656 13.7906 14.25 13.6875 14.25H12.5625C12.4594 14.25 12.375 14.1656 12.375 14.0625V6.9375C12.375 6.83437 12.4594 6.75 12.5625 6.75H13.6875C13.7906 6.75 13.875 6.83437 13.875 6.9375V14.0625Z" fill="white"/>
</svg>
